<svg width="6000" height="6000" viewBox="0 0 6000 6000" fill="none" xmlns="http://www.w3.org/2000/svg">
<mask id="mask0_605_282" style="mask-type:alpha" maskUnits="userSpaceOnUse" x="0" y="0" width="6000" height="6000">
<rect width="6000" height="6000" fill="#FF0000"/>
</mask>
<g mask="url(#mask0_605_282)">
<path d="M-878.992 -421.665C-842.845 -174.179 -781.762 66.6128 -583.62 236.456C-483.21 322.465 -364.391 396.594 -241.724 445.12C114.397 585.847 345.34 852.911 535.115 1168C666.318 1385.87 817.937 1586.83 1011.73 1754C1168.2 1888.87 1341.41 1881.34 1522.48 1820.6C1647.99 1778.6 1775.68 1742.45 1898.35 1693.42C2005.79 1650.42 2086.12 1699.45 2117.07 1812.06C2167.11 1993.12 2187.7 2178.02 2182.17 2364.43C2172.64 2684.04 2008.3 2903.24 1713.76 3014.02C1563.98 3070.24 1401.15 3090.66 1246.69 3135.17C1019.09 3200.93 810.741 3300.66 677.53 3510.66C541.14 3725.85 575.112 3926.82 786.14 4071.06C1005.7 4220.99 1252.04 4295.96 1514.28 4311.52C1668.74 4320.55 1813 4267.17 1940.52 4179.32C2167.95 4022.53 2400.06 3871.1 2615.61 3699.08C2720.04 3615.75 2800.03 3496.77 2876.51 3383.99C3113.98 3034.1 3381.24 2710.64 3707.74 2441.24C3872.58 2305.19 4074.9 2246.29 4283.92 2214C4627.33 2161.12 4969.05 2096.7 5286.85 1951.95C5489.85 1859.42 5654.35 1710.49 5772.33 1518.73C5914.75 1287.64 6043.61 1049.19 6133.31 791.5C6200.25 598.899 6238.91 400.777 6250.12 197.467C6261.67 -8.8544 6272.54 -215.343 6283.59 -421.665" stroke="white" stroke-linecap="round" stroke-linejoin="round"/>
<path d="M192.048 6254.92C215.477 6070.69 294.801 5909.55 401.905 5761.79C510.516 5611.86 630.338 5469.63 734.262 5316.69C829.15 5176.96 785.806 5010.47 653.433 4898.35C529.928 4793.6 378.811 4748.76 232.882 4702.41C-50.107 4612.72 -188.84 4425.81 -228.502 4138.49C-265.487 3871.43 -184.824 3631.64 -71.8624 3403.74C27.7109 3202.6 157.24 3016.19 276.393 2824.93C401.403 2623.96 424.163 2412.62 351.365 2188.73C262.837 1916.31 134.313 1665.48 -59.8131 1453.47C-216.453 1282.45 -416.436 1173.86 -637.004 1112.44C-772.222 1074.79 -914.805 1062.91 -1054.71 1043.17C-1232.27 1018.24 -1385.89 1077.97 -1532.49 1175.19C-1697.84 1284.8 -1885.43 1360.6 -2018.48 1518.23C-2072.2 1581.81 -2103.49 1646.4 -2100.65 1728.73C-2094.62 1909.95 -2079.39 2091.68 -2086.59 2272.4C-2093.79 2455.96 -2126.59 2636.18 -2241.56 2792.13C-2330.42 2912.78 -2450.07 2995.11 -2578.77 3056.02C-2832.47 3176 -3066.59 3323.08 -3290.51 3491.59C-3401.46 3575.08 -3522.45 3657.58 -3673.57 3652.06C-3749.04 3649.21 -3825.36 3641.52 -3899.32 3626.79C-4015.97 3603.36 -4129.43 3565.55 -4251.26 3602.19C-4441.04 3659.42 -4472.83 3816.71 -4368.41 3954.43C-4252.94 4106.87 -4127.42 4253.62 -4028.02 4416.1C-3885.6 4649.03 -3764.94 4895.18 -3631.06 5133.46C-3557.43 5264.31 -3484.3 5396.84 -3395.77 5517.49C-3233.1 5738.87 -3169.85 5986.02 -3171.69 6255.09" stroke="white" stroke-linecap="round" stroke-linejoin="round"/>
<path d="M4174.98 -421.665C4169.46 -385.354 4159.25 -349.21 4159.08 -312.899C4157.41 -123.31 4157.07 66.4455 4158.58 256.034C4161.59 605.927 4023.86 886.21 3748.74 1101.57C3678.79 1156.29 3611.51 1215.19 3548.09 1277.27C3376.05 1445.44 3161.84 1528.94 2936.93 1595.54C2812.75 1632.35 2688.91 1672.68 2569.09 1721.54C2415.46 1784.12 2352.87 1917.65 2335.64 2071.76C2317.9 2230.06 2319.24 2390.53 2298.65 2548.16C2277.57 2709.3 2229.37 2859.9 2110.22 2985.4C1981.19 3121.45 1833.92 3224.52 1655.69 3273.72C1536.71 3306.68 1410.86 3314.88 1288.19 3334.96C1099.26 3365.92 912.827 3410.43 804.886 3587.13C718.032 3729.37 744.306 3857.04 871.157 3960.79C1063.78 4118.42 1290.7 4190.87 1539.05 4169.28C1685.82 4156.57 1813.17 4083.95 1923.79 3987.06C2102.85 3830.44 2288.11 3683.18 2491.77 3558.69C2566.58 3513 2636.53 3451.59 2692.26 3383.66C2955.67 3062.38 3248.87 2769.38 3537.88 2471.86C3732.84 2271.06 3975.33 2185.72 4241.92 2146.73C4578.13 2097.53 4908.81 2032.44 5221.92 1889.54C5463.07 1779.43 5639.46 1606.91 5772.5 1385.03C5927.47 1126.67 6066.54 859.604 6140.34 565.265C6208.45 293.516 6204.77 14.9069 6199.25 -262.699C6198.24 -315.743 6188.7 -368.62 6183.18 -421.665" stroke="white" stroke-linecap="round" stroke-linejoin="round"/>
<path d="M-962.664 -421.665C-927.688 -52.361 -818.408 272.767 -452.581 449.136C-369.576 489.129 -293.264 544.014 -209.087 581.162C23.362 683.57 193.055 850.903 335.972 1058.06C577.793 1408.29 830.324 1751.15 1079.51 2096.36C1100.09 2124.81 1128.04 2148.24 1154.48 2171.83C1226.94 2236.42 1303.09 2232.74 1380.07 2180.2C1411.36 2158.78 1441.82 2136.19 1472.11 2113.43C1577.21 2034.62 1698.87 2011.86 1823.21 2032.61C1912.24 2047.5 1972.15 2121.46 1987.55 2206.13C2003.28 2292.48 2008.63 2388.36 1987.38 2472.36C1945.71 2637.02 1794.93 2764.69 1589.42 2765.36C1536.37 2765.36 1481.98 2744.95 1430.78 2752.14C1367.85 2760.84 1294.72 2772.72 1248.53 2810.71C999.849 3015.02 727.069 3199.42 554.363 3479.04C400.401 3728.36 416.467 3995.43 710.668 4163.76C953.66 4302.82 1213.56 4395.02 1489.18 4438.52C1705.56 4472.66 1904.04 4415.1 2073.73 4279.56C2253.64 4135.82 2441.23 4005.63 2643.39 3895.36C2782.63 3819.39 2860.28 3686.36 2926.38 3551.99C3116.66 3165.12 3380.4 2835.47 3699.54 2550.5C3868.73 2399.57 4077.42 2318.41 4300.66 2281.77C4636.36 2226.72 4971.9 2175.68 5288.36 2039.64C5552.94 1926.02 5740.87 1736.76 5873.75 1486.27C5934.5 1371.64 5996.42 1257.52 6057.67 1143.23" stroke="white" stroke-linecap="round" stroke-linejoin="round"/>
<path d="M74.9042 6254.92C119.754 5965.6 264.512 5723.81 434.372 5493.39C503.99 5399.01 573.44 5301.63 558.379 5175.96C553.191 5132.79 535.451 5084.93 508.341 5051.46C414.457 4935.67 274.051 4899.02 141.844 4849.16C79.9247 4825.73 16.1642 4804.48 -41.9063 4773.19C-253.604 4659.07 -321.213 4455.09 -359.369 4238.56C-413.089 3934.18 -325.397 3653.56 -191.684 3386C-92.4457 3187.37 7.6296 2987.58 127.787 2801.5C286.937 2554.85 292.459 2306.53 182.845 2047C93.9823 1836.49 -18.979 1640.71 -192.688 1485.76C-364.891 1332.32 -561.36 1244.64 -795.316 1242.46C-953.629 1240.96 -1108.76 1239.62 -1239.13 1351.9C-1577.68 1643.22 -1868.03 1962.33 -1936.31 2431.03C-1957.56 2576.78 -2016.8 2717.34 -2101.65 2840.83C-2198.55 2981.72 -2340.96 3065.39 -2493.75 3134.83C-2723.86 3239.41 -2949.11 3348.68 -3131.86 3534.09C-3297.87 3702.59 -3488.81 3835.96 -3723.1 3907.24C-3938.65 3972.84 -3963.25 4067.38 -3905.52 4288.26C-3831.04 4572.72 -3689.8 4831.76 -3554.42 5090.95C-3486.81 5220.64 -3404.14 5344.97 -3312.09 5458.59C-3153.78 5654.03 -3096.38 5877.76 -3087.68 6121.22C-3086 6166.07 -3077.13 6210.41 -3071.44 6255.09" stroke="white" stroke-linecap="round" stroke-linejoin="round"/>
<path d="M-1046.34 -421.665C-1017.56 -169.494 -963.334 73.9755 -803.85 281.134C-704.277 410.482 -567.886 491.471 -426.977 564.931C-236.198 664.494 -31.5292 742.973 115.906 909.135C184.352 986.275 250.623 1066.43 308.024 1151.77C481.064 1409.13 655.275 1666.15 816.768 1930.7C890.904 2052.19 956.672 2186.22 990.979 2323.43C1059.76 2598.36 1014.07 2854.05 794.678 3059.03C660.296 3184.7 539.971 3324.25 453.116 3486.4C362.413 3655.91 308.861 3835.46 417.973 4020.69C491.607 4145.69 608.585 4222.33 736.105 4279.06C1001.02 4396.86 1273.97 4493.41 1555.45 4565.36C1767.99 4619.75 1964.79 4589.12 2122.6 4437.02C2296.81 4269.18 2490.1 4132.97 2702.47 4021.53C2807.56 3966.31 2878.69 3884.48 2928.73 3778.56C2992.65 3643.36 3068.46 3513.34 3127.37 3375.96C3228.78 3139.85 3392.28 2950.26 3564.15 2766.03C3683.47 2638.19 3810.99 2521.72 3973.32 2446.59C4123.44 2376.98 4280.41 2338.33 4442.41 2313.73C4723.39 2270.89 5002.19 2224.87 5271.96 2124.81C5575.03 2012.53 5774.85 1800.52 5922.78 1527.26C5988.05 1406.62 6046.12 1282.12 6107.54 1159.46" stroke="white" stroke-linecap="round" stroke-linejoin="round"/>
<path d="M-42.2422 6254.92C-11.9519 5979.49 105.193 5732.84 217.987 5485.53C314.715 5273.18 246.771 5158.39 83.2703 5066.86C22.1875 5032.72 -39.7318 5000.43 -100.647 4966.29C-342.803 4830.58 -451.078 4609.37 -493.585 4347.16C-507.14 4263.83 -525.382 4179.99 -525.717 4096.16C-526.386 3882.64 -467.646 3680.84 -385.142 3485.39C-290.924 3262 -197.711 3038.11 -99.4761 2816.56C-68.349 2746.12 -21.6582 2682.7 16.3303 2615.09C117.912 2433.87 116.74 2242.95 48.1267 2055.37C-34.0422 1831.14 -161.228 1633.35 -368.909 1503.5C-599.35 1359.43 -971.871 1350.39 -1173.86 1634.69C-1324.31 1846.37 -1502.71 2038.13 -1653.82 2249.3C-1732.64 2359.41 -1794.06 2487.59 -1838.07 2616.27C-1949.86 2942.57 -2175.95 3139.18 -2493.08 3252.47C-2755.82 3346.34 -2967.35 3513.84 -3148.26 3726.35C-3228.25 3820.23 -3329.33 3896.53 -3422.71 3978.69C-3479.28 4028.39 -3537.68 4076.41 -3598.43 4120.93C-3730.8 4217.98 -3729.97 4356.87 -3695.66 4488.72C-3609.47 4819.54 -3470.41 5126.1 -3238.79 5385.13C-3077.8 5565.18 -3002.33 5778.53 -3003 6020.49C-3003.33 6098.64 -2992.79 6176.61 -2987.1 6254.76" stroke="white" stroke-linecap="round" stroke-linejoin="round"/>
<path d="M6534.61 -421.665C6509.51 -290.643 6482.74 -159.789 6459.64 -28.4323C6421.99 186.089 6396.88 403.287 6347.68 615.131C6299.65 821.787 6243.59 1029.45 6162.26 1224.89C6070.38 1445.6 5952.4 1655.27 5817.69 1855.91C5672.59 2072.1 5465.08 2182.04 5229.12 2255.16C5022.27 2319.08 4808.9 2345.19 4593.69 2367.11C4332.79 2393.71 4073.06 2439.06 3857.35 2607.57C3566.16 2835.14 3333.04 3109.06 3205.52 3460.96C3153.98 3603.53 3113.64 3750.12 3070.8 3895.7C3022.77 4058.68 2934.41 4183.84 2769.57 4247.76C2655.27 4292.11 2558.21 4363.22 2475.54 4455.42C2434.54 4501.11 2418.31 4558.17 2438.39 4605.02C2459.47 4654.05 2500.47 4694.21 2567.75 4709.94C2761.54 4755.62 2917.51 4688.52 3043.53 4554.65C3214.39 4373.26 3433.62 4306 3664.9 4293.78C3866.55 4283.07 4050.8 4357.53 4114.57 4581.93C4150.21 4707.26 4168.95 4837.61 4190.71 4966.46C4201.92 5032.39 4208.28 5100.16 4207.44 5167.09C4203.76 5529.7 4197.24 5892.15 4191.55 6254.76" stroke="white" stroke-linecap="round" stroke-linejoin="round"/>
<path d="M4292.12 -421.665C4280.91 -312.899 4273.38 -203.63 4257.99 -95.5332C4225.19 135.052 4260.5 370.824 4193.89 599.568C4153.22 739.626 4093.31 871.652 3996.25 972.386C3811.66 1163.98 3612.85 1342.53 3412.03 1517.39C3299.74 1615.11 3152.64 1650.92 3012.23 1695.93C2915.67 1726.89 2818.11 1759.35 2728.24 1805.37C2561.73 1891.05 2489.26 2044.99 2469.52 2222.2C2450.61 2391.54 2448.1 2562.39 2433.54 2732.23C2424.5 2838.65 2409.6 2944.74 2391.2 3049.99C2383.16 3095.84 2375.97 3143.53 2419.14 3164.45C2450.77 3179.68 2500.98 3179.51 2533.95 3165.45C2723.39 3085.13 2885.72 2961.47 3036 2823.59C3195.82 2676.84 3352.62 2526.74 3504.58 2371.79C3689.83 2182.87 3919.44 2106.74 4174.81 2078.79C4564.74 2036.29 4946.63 1960.66 5296.06 1770.06C5451.53 1685.23 5575.03 1562.24 5670.75 1417.49C5830.91 1175.03 5972.49 920.346 6055.99 640.23C6126.62 403.454 6158.58 160.654 6116.57 -87.3339C6097.66 -198.443 6082.77 -310.389 6066.03 -422" stroke="white" stroke-linecap="round" stroke-linejoin="round"/>
<path d="M7706.06 5117.06C7522.82 5054.81 7362.66 4948.89 7214.05 4830.42C6996.83 4657.23 6743.47 4561.18 6492.94 4455.42C6185.86 4325.57 5870.23 4211.62 5597.62 4012.16C5490.52 3933.85 5375.71 3862.9 5304.42 3744.93C5231.12 3623.95 5201.84 3496.94 5254.55 3360.06C5300.91 3239.75 5341.74 3116.59 5398.31 3001.13C5481.48 2831.12 5476.96 2697.76 5237.82 2656.26C5089.21 2630.49 4942.95 2590.33 4794.01 2566.23C4461.98 2512.35 4156.4 2566.57 3889.48 2789.79C3697.03 2950.76 3556.45 3146.88 3465.58 3377.3C3421.9 3488.24 3405 3607.55 3430.44 3728.03C3452.19 3830.77 3514.78 3901.38 3614.86 3927.15C3718.95 3953.93 3826.56 3967.31 3932.32 3987.56C3999.43 4000.45 4069.38 4006.97 4132.47 4030.9C4255.47 4077.59 4313.04 4188.36 4322.08 4305.49C4344.17 4594.64 4353.37 4885.3 4357.39 5175.46C4360.57 5404.03 4343 5632.78 4344.34 5861.52C4345.01 5992.71 4364.75 6123.73 4375.97 6254.76" stroke="white" stroke-linecap="round" stroke-linejoin="round"/>
<path d="M7714.43 5242.56C7565.83 5211.77 7428.1 5152.37 7305.26 5065.69C7031.48 4872.59 6716.86 4757.96 6426.01 4597.99C6118.58 4428.99 5811.33 4259.81 5505.75 4087.29C5315.47 3979.86 5133.73 3857.54 4928.39 3777.22C4822.12 3735.72 4800.54 3675.82 4835.85 3569.06C4872.66 3457.62 4917.85 3348.01 4941.78 3233.89C4961.69 3139.35 4973.41 3036.27 4957.01 2942.4C4936.93 2828.11 4848.73 2736.08 4742.63 2702.95C4467.34 2617.1 4205.1 2654.75 3973.99 2841.16C3797.11 2983.73 3665.74 3160.77 3601.14 3377.8C3578.21 3454.61 3577.37 3550.65 3601.98 3626.29C3645.49 3760.32 3771.5 3794.46 3898.85 3802.49C4051.98 3812.2 4205.61 3814.04 4359.07 3820.4C4492.95 3825.92 4542.15 3898.04 4519.56 4029.73C4493.45 4182 4471.53 4335.78 4461.15 4489.73C4443.91 4745.91 4436.72 5002.77 4426.17 5259.29C4419.81 5412.57 4406.09 5566.35 4411.78 5719.29C4417.47 5873.07 4443.24 6026.18 4459.14 6179.62C4461.65 6204.39 4459.48 6229.82 4459.48 6254.92" stroke="white" stroke-linecap="round" stroke-linejoin="round"/>
<path d="M6618.29 -421.665C6590.34 -299.01 6559.22 -176.857 6535.28 -53.365C6482.9 216.711 6443.41 489.631 6380.99 757.364C6335.3 953.478 6271.21 1146.75 6197.57 1334.5C6103.19 1575.29 5997.26 1812.9 5839.44 2020.9C5665.4 2250.31 5429.44 2379.16 5145.44 2413.12C4979.1 2433.04 4811.08 2439.23 4643.56 2447.76C4237.9 2468.51 3890.49 2598.53 3627.75 2930.85C3495.87 3097.68 3386.59 3270.71 3312.63 3468.66C3259.58 3610.73 3263.26 3758.48 3274.47 3903.73C3283.51 4019.19 3437.8 4114.57 3580.89 4122.6C3681.63 4128.12 3782.04 4141.67 3882.12 4155.4C4055.83 4179.16 4164.77 4283.24 4206.44 4448.23C4238.91 4576.74 4266.02 4709.27 4272.55 4841.13C4283.26 5058.16 4277.23 5276.03 4274.72 5493.56C4273.38 5605.17 4257.32 5716.95 4260.5 5828.22C4264.51 5970.62 4281.08 6112.69 4292.29 6254.92" stroke="white" stroke-linecap="round" stroke-linejoin="round"/>
<path d="M4451.11 -413.298C4426 -326.787 4391.36 -241.949 4377.64 -153.598C4338.98 93.7207 4311.37 342.88 4274.55 590.7C4248.78 764.559 4161.09 912.481 4047.96 1041.33C3889.15 1222.21 3720.96 1394.74 3555.45 1569.43C3453.87 1676.69 3330.2 1746.3 3187.95 1788.64C3090.89 1817.42 2997.84 1859.92 2902.95 1895.9C2743.97 1956.47 2663.81 2079.63 2626.49 2238.93C2589.67 2396.06 2586.49 2547.99 2676.69 2691.06C2717.53 2755.99 2756.02 2771.38 2827.81 2749.63C2993.15 2699.77 3114.65 2584.31 3236.82 2472.19C3344.25 2373.63 3442.99 2265.7 3547.58 2163.97C3649.5 2064.74 3778.36 2028.43 3915.42 2012.86C4203.6 1980.23 4496.12 1983.41 4777.44 1896.57C5056.75 1810.39 5333.04 1716.68 5529.01 1484.76C5713.43 1266.56 5840.78 1013.38 5949.56 750.001C6029.55 556.229 6071.56 355.262 6064.03 147.267C6057.33 -41.4845 6018.17 -225.551 5931.49 -396.398C5927.47 -404.263 5915.25 -407.776 5906.88 -413.466" stroke="white" stroke-linecap="round" stroke-linejoin="round"/>
<path d="M-1565.12 -421.665C-1514.92 -148.41 -1468.23 125.681 -1413.17 397.932C-1380.87 557.903 -1299.37 684.072 -1138.72 750.67C-933.379 835.843 -733.898 935.406 -526.718 1015.56C-269.501 1114.95 -64.3303 1277.94 99.338 1494.8C245.769 1688.74 358.396 1901.59 443.912 2129.83C555.199 2427.01 512.19 2698.93 335.636 2959.3C219.83 3130.15 108.71 3305.51 10.1407 3486.73C-89.2652 3669.29 -132.442 3870.6 -108.176 4079.43C-77.3835 4343.81 88.9623 4497.42 325.763 4590.29C454.957 4641 587.163 4687.01 709.161 4751.77C795.514 4797.62 873.667 4864.72 943.117 4934.83C1006.38 4998.75 990.644 5091.12 967.55 5166.26C922.198 5314.01 812.584 5424.28 719.872 5544.09C611.262 5684.32 499.305 5823.04 404.417 5972.3C351.033 6056.13 328.775 6160.05 292.628 6254.76" stroke="white" stroke-linecap="round" stroke-linejoin="round"/>
<path d="M-1146.75 -421.665C-1110.94 -142.888 -1065.25 132.877 -887.357 364.8C-801.005 477.415 -682.354 548.699 -561.025 615.633C-402.545 702.98 -231.68 773.093 -87.5917 879.851C40.4311 974.729 153.727 1098.89 247.443 1228.74C444.581 1501.66 625.989 1786.29 760.204 2097.03C857.099 2321.43 888.561 2556.7 806.894 2789.62C770.579 2893.2 689.749 2981.72 626.658 3075.43C524.575 3226.86 406.928 3369.6 321.412 3529.57C244.263 3673.98 207.111 3836.63 266.688 4004.46C312.207 4132.47 395.045 4224.5 518.215 4280.23C685.398 4356.03 852.413 4431.83 1020.27 4505.96C1131.22 4554.99 1245.18 4596.99 1354.13 4650.03C1416.88 4680.49 1477.13 4720.81 1529.51 4767C1614.53 4842.3 1630.09 4971.81 1554.11 5056.99C1392.45 5237.87 1226.11 5415.08 1052.56 5584.25C852.246 5779.7 666.32 5982.34 576.955 6254.92" stroke="white" stroke-linecap="round" stroke-linejoin="round"/>
<path d="M-1397.77 -421.665C-1358.78 -245.965 -1321.29 -69.9309 -1279.79 105.267C-1262.39 178.893 -1240.46 252.353 -1212.85 322.632C-1129.68 533.639 -971.7 671.522 -770.378 766.902C-657.752 820.281 -550.146 885.541 -434.841 932.394C-142.481 1050.87 66.874 1262.54 232.551 1520.4C354.716 1710.49 466.506 1906.11 545.997 2120.96C673.852 2466.67 611.765 2773.23 393.206 3059.03C257.151 3237.07 134.818 3424.15 59.1757 3636.5C-34.7077 3900.21 -22.9932 4190.03 194.562 4361.05C288.947 4435.18 408.435 4478.35 518.886 4530.72C642.893 4589.63 768.238 4646.18 895.591 4697.72C992.989 4737.05 1064.95 4807.33 1127.54 4884.47C1189.62 4960.77 1187.45 5063.85 1142.43 5140.15C1060.6 5278.87 965.376 5412.4 859.276 5533.55C727.906 5683.82 589.843 5828.06 494.955 6004.93C452.616 6083.91 426.509 6171.43 393.039 6255.09" stroke="white" stroke-linecap="round" stroke-linejoin="round"/>
<path d="M-1263.89 -421.665C-1235.11 -198.275 -1190.26 22.4369 -1103.07 230.265C-1013.2 444.451 -853.72 597.895 -644.7 699.634C-519.02 760.71 -390.997 817.604 -268.664 884.704C-71.3584 993.136 79.0894 1153.94 208.953 1335.33C395.548 1596.04 560.388 1867.95 669.835 2171.83C784.637 2490.27 732.089 2777.41 527.085 3042.46C386.176 3224.52 246.439 3410.6 170.128 3628.97C100.51 3827.93 86.6202 4031.9 233.554 4213.8C332.959 4336.62 476.043 4390.67 611.262 4454.59C783.967 4536.25 962.362 4605.69 1137.41 4682.83C1176.07 4699.9 1212.38 4723.83 1246.19 4749.43C1414.21 4877.1 1399.65 5041.76 1276.98 5198.38C1131.22 5384.46 960.689 5550.95 803.548 5728.33C666.153 5883.28 535.62 6043.42 493.615 6255.09" stroke="white" stroke-linecap="round" stroke-linejoin="round"/>
<path d="M4668.66 -413.299C4640.71 -376.988 4607.58 -343.689 4585.82 -304.031C4480.06 -111.598 4432.36 96.7321 4407.09 314.432C4369.1 642.238 4285.09 950.633 4035.57 1196.11C3904.54 1324.96 3791.91 1476.56 3739.36 1661.63C3713.93 1750.82 3733.84 1801.52 3823.88 1828.29C4012.31 1884.35 4202.09 1904.6 4401.4 1883.68C4591.68 1863.77 4773.59 1822.1 4953.15 1762.2C5272.12 1655.94 5511.94 1455.81 5673.09 1159.97C5782.88 958.497 5894.33 758.367 5949.39 532.467C6028.38 208.009 5995.58 -94.0276 5781.87 -363.099C5767.98 -380.502 5759.28 -401.92 5748.07 -421.331" stroke="white" stroke-linecap="round" stroke-linejoin="round"/>
<path d="M6701.97 -421.665C6671.34 -307.377 6636.03 -193.925 6610.93 -78.4649C6560.22 155.132 6509.51 388.896 6469.02 624.334C6401.57 1015.73 6313.88 1399.59 6124.94 1753.83C6003.45 1981.74 5891.16 2214.83 5762.63 2438.56C5671.93 2596.35 5723.64 2640.36 5839.95 2707.8C5918.94 2753.65 5998.26 2799.5 6073.9 2850.37C6195.23 2931.86 6277.23 3047.65 6341.83 3176.16C6415.8 3323.25 6486.25 3472.18 6560.05 3619.26C6621.81 3742.59 6698.28 3856.21 6819.61 3928.16C6998.18 4034.08 7172.22 3987.56 7337.23 3894.19C7463.58 3822.57 7583.4 3739.24 7706.07 3661.26" stroke="white" stroke-linecap="round" stroke-linejoin="round"/>
<path d="M1237.99 -413.299C1393.29 -253.496 1607.16 -164.642 1749.24 12.731C1895 194.957 1967.8 402.617 1982.36 632.533C1995.41 838.854 2003.28 1045.34 2017.17 1251.5C2022.86 1335.5 2034.91 1419.67 2050.81 1502.33C2064.36 1573.28 2151.38 1625.32 2233.55 1610.43C2484.91 1565.25 2736.11 1518.39 2986.63 1468.36C3169.54 1431.88 3327.69 1341.19 3471.78 1226.06C3634.11 1096.38 3797.27 967.199 3923.79 799.531C4003.95 693.107 4053.65 571.958 4056.16 439.932C4061.69 152.789 4057.84 -134.522 4057.84 -421.833" stroke="white" stroke-linecap="round" stroke-linejoin="round"/>
<path d="M4108.04 6254.92C4108.04 6207.57 4107.37 6160.05 4108.04 6112.69C4113.39 5817.01 4122.1 5521.5 4123.43 5225.83C4124.27 5066.52 4100.17 4910.07 4050.3 4756.96C3963.95 4491.57 3741.88 4400.54 3489.68 4524.7C3386.76 4575.4 3286.85 4637.32 3197.32 4708.77C3009.22 4858.86 2794.84 4921.28 2560.05 4923.45C2445.75 4924.46 2331.12 4915.59 2216.98 4907.39C2042.6 4894.84 1900.52 4964.79 1773.51 5075.23C1555.78 5264.65 1336.22 5452.06 1121.68 5645.16C1026.62 5730.84 932.238 5820.69 855.759 5922.27C778.945 6024.34 724.723 6143.31 660.461 6254.76" stroke="white" stroke-linecap="round" stroke-linejoin="round"/>
<path d="M-795.316 -421.665C-759.001 -307.377 -728.544 -190.745 -685.2 -79.1343C-625.289 74.9795 -513.332 186.925 -368.239 263.731C-272.515 314.6 -174.448 361.621 -75.5439 406.132C172.636 517.743 363.081 688.423 503.989 923.86C608.583 1098.72 721.544 1272.92 857.432 1423.35C970.394 1548.68 1115.82 1652.76 1304.93 1644.73C1499.55 1636.36 1744.55 1528.27 1815.34 1285.13C1896.01 1008.36 1915.59 728.917 1839.44 448.802C1788.23 260.385 1677.61 115.641 1497.38 30.1342C1416.21 -8.35236 1331.7 -41.4843 1255.56 -88.3376C1120 -171.837 1000.85 -274.747 928.389 -421.665" stroke="white" stroke-linecap="round" stroke-linejoin="round"/>
<path d="M7706.06 5351.33C7513.11 5318.7 7338.9 5241.22 7169.54 5144C6976.08 5032.89 6772.58 4939.35 6577.12 4831.42C6420.65 4745.08 6266.69 4653.04 6116.91 4555.49C5851.32 4382.47 5577.54 4223.84 5286.52 4099.51C5173.56 4051.31 5049.22 4015.17 4919.69 4045.96C4766.39 4082.44 4665.82 4190.03 4615.11 4324.07C4564.57 4457.77 4544.66 4605.52 4528.76 4749.09C4503.65 4973.99 4484.07 5200.39 4479.22 5426.63C4475.54 5599.15 4495.12 5772.67 4511.02 5945.19C4520.56 6049.1 4543.15 6151.68 4559.88 6254.92" stroke="white" stroke-linecap="round" stroke-linejoin="round"/>
<path d="M4041.1 6254.92C4046.62 5925.78 4059.01 5596.64 4054.49 5267.66C4052.65 5136.3 4030.89 4999.26 3987.38 4875.6C3886.47 4589.12 3693.01 4567.54 3455.88 4691.2C3333.04 4755.28 3216.57 4831.42 3095.24 4898.86C2934.41 4988.38 2758.36 5017.66 2576.79 5025.36C2448.43 5030.88 2319.91 5039.42 2191.88 5050.46C2027.54 5064.52 1885.63 5142.66 1758.45 5236.37C1523.65 5409.39 1296.23 5592.95 1071.64 5779.03C920.525 5904.19 805.555 6060.15 735.938 6246.22" stroke="white" stroke-linecap="round" stroke-linejoin="round"/>
<path d="M7714.43 5460.09C7633.6 5446.2 7552.27 5434.15 7471.77 5417.92C7276.64 5378.6 7113.31 5265.32 6936.42 5183.66C6882.2 5158.56 6831.16 5126.43 6777.1 5100.83C6514.03 4976.16 6278.07 4810.84 6048.13 4633.47C5815.85 4454.42 5559.47 4315.03 5279.66 4221.83C5020.43 4135.48 4768.4 4255.96 4677.7 4514.99C4623.81 4668.77 4600.72 4828.74 4592.85 4991.73C4584.65 5162.07 4570.43 5331.91 4560.22 5502.09C4544.99 5755.77 4585.15 6002.92 4652.09 6246.72" stroke="white" stroke-linecap="round" stroke-linejoin="round"/>
<path d="M7706.06 5786.39C7467.26 5810.32 7254.05 5899.17 7052.23 6027.18C6919.85 6111.19 6774.26 6101.65 6626.32 6055.3C6328.94 5962.26 6155.57 5767.32 6098 5460.43C6062.18 5269.83 6004.12 5085.77 5874.08 4932.66C5744.39 4779.72 5593.44 4659.07 5396.47 4607.36C5156.99 4544.28 4998.51 4625.1 4905.13 4867.06C4801.54 5135.3 4774.93 5414.41 4807.23 5703.23C4829.49 5901.01 4919.35 6071.86 4978.09 6255.09" stroke="white" stroke-linecap="round" stroke-linejoin="round"/>
<path d="M-694.906 -421.665C-651.228 -150.585 -539.271 75.4815 -276.197 196.798C-146.835 256.369 -12.9549 306.066 116.407 365.47C321.912 459.846 469.013 617.808 585.656 808.066C664.98 937.414 740.957 1069.27 829.652 1191.93C929.56 1330.48 1063.61 1430.21 1238.32 1450.79C1379.56 1467.53 1500.73 1410.8 1588.25 1300.86C1688.16 1175.36 1723.47 1024.09 1751.75 867.469C1775.85 733.268 1748.07 613.29 1707.24 490.133C1653.52 328.322 1527.67 247.165 1380.23 189.603C1303.09 159.315 1220.75 140.407 1146.78 104.263C923.703 -4.83836 775.933 -179.701 711.001 -421.498" stroke="white" stroke-linecap="round" stroke-linejoin="round"/>
<path d="M7714.43 5560.49C7440.14 5545.77 7170.71 5517.15 6927.05 5369.4C6749.99 5261.97 6556.2 5180.31 6386.68 5063.01C6231.88 4955.75 6101.85 4813.18 5956.75 4691.03C5746.4 4513.99 5509.6 4384.64 5237.48 4331.6C5040.51 4293.28 4858.1 4386.15 4778.28 4573.56C4706.82 4741.23 4671.17 4918.27 4660.13 5100.33C4650.09 5264.98 4629.84 5429.3 4628.83 5593.96C4627.49 5818.18 4683.22 6034.21 4752.34 6246.56" stroke="white" stroke-linecap="round" stroke-linejoin="round"/>
<path d="M7714.43 5660.89C7549.93 5672.1 7385.42 5690.34 7220.75 5692.52C7008.38 5695.36 6811.58 5633.28 6625.99 5528.2C6434.54 5419.77 6300.32 5259.29 6172.64 5085.1C6025.2 4884.3 5851.99 4704.42 5630.09 4582.93C5508.59 4516.5 5380.07 4466.47 5237.65 4454.59C5045.7 4438.69 4899.6 4563.86 4836.85 4724.16C4773.92 4884.97 4735.27 5052.3 4726.9 5225.83C4722.38 5317.86 4715.35 5409.89 4710.5 5501.93C4699.29 5712.77 4741.29 5915.07 4810.74 6112.69C4827.48 6160.05 4844.21 6207.57 4860.95 6254.92" stroke="white" stroke-linecap="round" stroke-linejoin="round"/>
<path d="M-619.598 -413.299C-605.708 -385.354 -586.63 -358.916 -578.597 -329.465C-511.657 -81.8123 -346.65 68.9548 -109.013 146.765C26.8756 191.275 163.433 233.276 300.995 272.265C517.211 333.508 648.079 475.909 730.248 681.729C782.628 813.085 853.417 939.087 931.737 1057.06C971.399 1116.96 1040.68 1162.81 1105.11 1199.62C1233.97 1273.42 1363.67 1252.17 1454.37 1142.06C1567.83 1004.35 1648.33 765.897 1525.49 563.926C1459.22 454.992 1355.97 427.55 1254.05 392.075C1176.74 365.134 1091.22 362.29 1012.4 338.696C845.384 288.663 714.182 185.753 655.275 20.9303C604.233 -121.638 579.632 -273.576 543.485 -421.331" stroke="white" stroke-linecap="round" stroke-linejoin="round"/>
<path d="M3957.43 6254.92C3962.95 5978.82 3975.83 5702.56 3971.48 5426.63C3968.81 5255.61 3943.37 5084.76 3849.48 4932.49C3800.95 4853.84 3692.68 4795.44 3606.66 4825.73C3465.08 4875.6 3325.51 4931.99 3188.12 4992.4C3016.58 5067.7 2837.18 5104.34 2652.26 5126.43C2392.7 5157.55 2120.59 5151.03 1891.82 5302.63C1616.53 5485.02 1340.91 5669.43 1082.85 5874.74C966.212 5967.61 874.671 6102.32 827.98 6254.76" stroke="white" stroke-linecap="round" stroke-linejoin="round"/>
<path d="M1589.42 -413.298C1625.74 -376.987 1665.4 -343.52 1697.7 -304.03C1897.35 -59.3889 2028.88 215.037 2067.37 532.133C2089.8 716.869 2115.57 901.772 2151.88 1084C2187.36 1262.21 2327.6 1371.81 2492.78 1395.57C2905.3 1454.64 3252.21 1319.6 3554.95 1050.03C3652.01 963.685 3744.05 870.648 3830.74 773.762C3924.79 668.51 3973.15 541.002 3973.99 398.267C3974.83 239.301 3976.34 80.3342 3973.49 -78.6322C3971.48 -193.088 3963.11 -307.377 3957.42 -421.665" stroke="white" stroke-linecap="round" stroke-linejoin="round"/>
<path d="M1798.61 -421.666C1871.07 -273.911 1956.09 -130.673 2012.65 23.1056C2067.88 173.371 2097.5 333.508 2132.47 490.467C2172.8 671.521 2179 859.436 2249.78 1034.3C2325.59 1221.21 2468.18 1294.33 2643.73 1309.39C2982.11 1338.68 3269.28 1221.38 3513.44 991.629C3605.32 905.118 3696.19 817.101 3780.54 723.395C3875.59 618.142 3906.55 485.112 3905.88 347.899C3904.54 91.3775 3896.01 -165.311 3890.32 -421.833" stroke="white" stroke-linecap="round" stroke-linejoin="round"/>
<path d="M3873.75 6254.92C3879.27 6040.24 3891.99 5825.38 3888.14 5610.69C3885.29 5449.22 3861.03 5288.07 3781.54 5142.16C3720.79 5030.88 3629.75 4991.73 3505.75 5025.36C3346.26 5068.37 3188.95 5119.4 3028.3 5157.22C2899.1 5187.67 2767.06 5207.92 2635.36 5224.82C2431.02 5250.93 2217.82 5258.79 2035.07 5355.17C1717.94 5522.17 1403.66 5700.38 1140.25 5948.2C1051.72 6031.53 992.65 6146.32 920.188 6246.72" stroke="white" stroke-linecap="round" stroke-linejoin="round"/>
<path d="M1982.7 -421.665C2004.95 -346.365 2020.52 -268.221 2050.97 -196.267C2141.51 18.7556 2174.98 246.831 2218.32 473.4C2244.77 611.449 2277.9 748.83 2318.73 883.198C2396.89 1140.39 2675.69 1235.77 2895.09 1203.31C3232.63 1153.44 3466.25 943.103 3678.45 705.156C3767.48 605.258 3811.5 472.898 3807.31 331.334C3800.12 80.3342 3795.77 -170.665 3790.08 -421.665" stroke="white" stroke-linecap="round" stroke-linejoin="round"/>
<path d="M3773.34 6254.92C3778.86 6196.36 3784.55 6137.79 3790.08 6079.22C3795.77 6017.81 3808.65 5956.07 3805.47 5895.16C3795.1 5701.89 3800.12 5504.1 3705.4 5326.73C3639.29 5203.24 3511.94 5162.91 3354.8 5191.36C3087.71 5239.55 2819.45 5281.21 2551.69 5326.23C2327.94 5363.88 2109.55 5415.08 1915.25 5542.75C1705.73 5680.47 1488.85 5806.97 1281 5947.03C1168.87 6022.67 1083.02 6127.75 1028.8 6254.76" stroke="white" stroke-linecap="round" stroke-linejoin="round"/>
<path d="M2108.21 -413.299C2133.31 -332.477 2164.94 -252.994 2182.34 -170.331C2235.89 85.5212 2284.26 342.545 2334.13 599.234C2367.93 773.093 2440.06 928.043 2587.33 1031.29C2641.38 1069.1 2718.03 1084.16 2786.31 1090.86C3041.52 1116.13 3241.33 991.964 3420.9 832.161C3542.4 723.897 3649 601.074 3681.8 431.901C3702.89 323.301 3703.39 216.543 3693.85 105.266C3678.95 -69.0946 3689.83 -245.798 3689.83 -421.498" stroke="white" stroke-linecap="round" stroke-linejoin="round"/>
<path d="M6124.61 6246.56C5985.04 6081.9 5930.98 5879.09 5885.13 5676.96C5852.33 5532.71 5858.35 5380.11 5829.57 5234.69C5780.87 4988.04 5637.12 4817.37 5388.1 4749.43C5199.83 4698.22 5044.7 4818.03 4981.44 4992.73C4847.73 5361.87 4849.73 5731.17 5036.83 6087.59C5064.61 6140.64 5092.56 6193.51 5120.51 6246.56" stroke="white" stroke-linecap="round" stroke-linejoin="round"/>
<path d="M3672.93 6254.92C3684.14 6132.27 3706.74 6009.11 3703.05 5886.96C3699.54 5774.85 3673.77 5662.23 3646.49 5552.46C3594.95 5344.97 3373.88 5312.34 3237.99 5327.4C3086.7 5344.3 2937.26 5376.26 2785.81 5391.99C2462.99 5425.62 2154.56 5496.07 1881.62 5684.99C1712.43 5801.95 1531.52 5902.19 1365.68 6023.5C1281.16 6085.25 1218.58 6176.78 1146.11 6254.92" stroke="white" stroke-linecap="round" stroke-linejoin="round"/>
<path d="M2250.45 -421.665C2267.19 -321.265 2282.42 -220.531 2300.99 -120.466C2344.67 116.813 2382.49 355.43 2437.05 590.198C2476.54 760.543 2561.56 913.82 2744.97 964.355C2879.69 1001.5 3014.24 977.574 3137.91 901.103C3342.58 774.599 3511.77 621.657 3564.15 373.167C3567.67 356.601 3571.85 339.7 3572.35 322.967C3578.38 74.8121 3583.9 -173.51 3589.42 -421.665" stroke="white" stroke-linecap="round" stroke-linejoin="round"/>
<path d="M3555.78 6254.92C3581.72 6093.95 3609.5 5933.14 3572.85 5769.66C3530.51 5581.74 3445.33 5460.59 3212.72 5459.92C2935.08 5459.09 2662.47 5500.25 2392.87 5561.5C2243.93 5595.3 2114.9 5672.94 1990.39 5760.62C1800.11 5894.66 1605.15 6022.33 1414.2 6155.7C1376.05 6182.3 1346.6 6221.62 1313.12 6255.09" stroke="white" stroke-linecap="round" stroke-linejoin="round"/>
<path d="M2367.6 -421.665C2412.28 -134.354 2454.12 153.291 2503.49 439.765C2514.87 506.197 2551.02 568.612 2576.96 632.533C2669.33 861.277 2908.81 907.294 3108.96 777.946C3253.22 684.741 3391.28 560.915 3413.87 364.968C3426.43 256.034 3445.84 147.769 3454.37 38.5008C3464.58 -92.1863 3465.92 -223.543 3472.78 -354.564C3473.95 -377.154 3483.32 -399.242 3488.85 -421.498" stroke="white" stroke-linecap="round" stroke-linejoin="round"/>
<path d="M5672.76 6246.56C5669.92 6051.28 5668.58 5856 5663.89 5660.89C5661.55 5563.17 5656.53 5465.28 5646.83 5368.06C5635.61 5256.95 5614.36 5148.85 5539.39 5057.99C5406.68 4897.52 5199.5 4926.3 5103.77 5108.52C5058.42 5195.04 5042.02 5288.07 5024.28 5383.79C5001.69 5505.1 5012.74 5621.07 5038.84 5735.52C5077.67 5906.2 5179.25 6044.25 5296.39 6170.92C5320.49 6197.03 5346.43 6221.29 5371.53 6246.39" stroke="white" stroke-linecap="round" stroke-linejoin="round"/>
<path d="M2501.48 -421.665C2521.06 -265.543 2536.96 -108.752 2561.22 46.7002C2580.8 173.037 2605.41 299.206 2637.7 422.865C2652.43 479.256 2684.23 534.811 2720.54 581.329C2803.05 687.084 2968.22 687.084 3071.64 600.573C3196.82 495.822 3255.23 364.968 3272.63 206.169C3295.39 -3.49969 3327.19 -212.331 3355.13 -421.498" stroke="white" stroke-linecap="round" stroke-linejoin="round"/>
<path d="M3421.9 6254.92C3433.12 6154.52 3457.55 6053.45 3452.53 5953.89C3442.15 5746.9 3381.74 5625.92 3137.58 5592.12C2980.6 5570.36 2828.81 5597.47 2677.53 5621.74C2547.16 5642.48 2411.44 5667.42 2294.63 5724.65C2169.29 5785.89 2061.85 5884.78 1949.56 5971.13C1833.25 6060.65 1720.46 6154.69 1605.99 6246.72" stroke="white" stroke-linecap="round" stroke-linejoin="round"/>
<path d="M3204.35 6254.92C3221.08 6193.51 3247.53 6133.11 3252.71 6070.69C3271.12 5849.81 3186.11 5775.01 2969.72 5747.07C2781.12 5722.8 2594.02 5758.28 2418.47 5829.73C2240.25 5902.35 2123.77 6042.58 2041.27 6213.09C2035.91 6224.3 2030.05 6235.35 2024.53 6246.56" stroke="white" stroke-linecap="round" stroke-linejoin="round"/>
<path d="M2652.09 -421.665C2685.56 -237.599 2712.84 -52.0263 2755.85 129.697C2770.91 193.284 2821.28 250.512 2863.79 304.226C2874.5 317.78 2925.38 317.612 2943.45 304.226C3030.14 240.807 3079.67 149.275 3102.77 46.5328C3134.73 -94.8636 3159.33 -237.766 3187.78 -379.832C3190.63 -394.39 3198.66 -407.776 3204.18 -421.665" stroke="white" stroke-linecap="round" stroke-linejoin="round"/>
<path d="M-494.086 -421.665C-443.546 -186.562 -276.698 -14.0417 8.13159 37.4969C62.6877 47.3696 122.599 57.0749 174.645 44.5249C327.602 7.71163 388.351 -86.4969 392.535 -270.898C393.706 -321.098 392.702 -371.298 392.702 -421.498" stroke="white" stroke-linecap="round" stroke-linejoin="round"/>
<path d="M4300.49 2799.5C4101.35 2854.21 3955.75 2981.22 3850.82 3152.23C3796.43 3240.75 3754.76 3339.98 3789.57 3452.26C3816.35 3538.44 3879.44 3596 3965.96 3602.69C4213.64 3621.6 4426.34 3556.68 4595.03 3361.4C4697.28 3242.93 4704.14 3107.22 4691.76 2967.16C4685.23 2893.87 4556.2 2802.51 4476.38 2800C4420.65 2798.32 4364.75 2799.66 4309.03 2799.66" stroke="white" stroke-linecap="round" stroke-linejoin="round"/>
<path d="M4250.29 3050.5C4216.82 3078.44 4181.51 3104.38 4150.38 3134.66C4112.06 3171.81 4114.23 3211.47 4149.71 3251.46C4186.86 3293.46 4225.19 3295.64 4267.02 3259.66C4286.44 3242.93 4313.04 3229.71 4323.92 3208.63C4341.16 3175.49 4361.07 3134.83 4355.72 3101.2C4348.52 3055.85 4303 3045.14 4258.49 3050.5" stroke="white" stroke-linecap="round" stroke-linejoin="round"/>
<path d="M5873.58 3067.23C5628.41 3140.86 5522.65 3336.64 5487.34 3562.03C5468.43 3682.68 5550.93 3802.66 5648.66 3885.99C5822.71 4034.08 6028.71 4120.93 6250.29 4170.46C6287.44 4178.82 6329.44 4177.99 6366.93 4170.46C6456.29 4152.22 6509.51 4074.57 6482.4 3979.86C6409.1 3722.67 6347.68 3459.79 6191.21 3234.73C6116.4 3127.3 6016.66 3064.55 5881.78 3067.23" stroke="white" stroke-linecap="round" stroke-linejoin="round"/>
<path d="M5923.79 3385.16C5859.36 3409.93 5806.14 3440.38 5770.66 3509.49C5705.56 3636.83 5792.25 3806.17 5940.19 3854.36C6036.58 3885.66 6099.5 3882.31 6139 3818.89C6160.09 3784.92 6169.12 3735.22 6164.44 3695.06C6144.52 3527.23 6072.23 3392.69 5932.16 3385.33" stroke="white" stroke-linecap="round" stroke-linejoin="round"/>
<path d="M1422.07 3535.76C1357.98 3546.97 1293.05 3554.84 1229.96 3570.23C1183.93 3581.44 1136.41 3596 1096.58 3620.6C973.073 3696.9 976.42 3799.98 1072.48 3876.62C1328.36 4080.6 1680.96 4034.75 1815.85 3720C1846.64 3648.21 1834.76 3598.68 1756.27 3580.27C1650 3555.51 1539.39 3549.65 1430.61 3535.76" stroke="white" stroke-linecap="round" stroke-linejoin="round"/>
<path d="M3145.78 2046.5C3106.78 2060.39 3068.29 2076.45 3028.46 2088C2926.55 2117.45 2890.57 2203.12 2863.12 2289.8C2842.7 2353.89 2922.03 2414.63 2986.63 2389.36C3094.23 2347.03 3166.19 2267.38 3212.21 2163.63C3238.82 2103.56 3206.19 2069.42 3153.98 2046.66" stroke="white" stroke-linecap="round" stroke-linejoin="round"/>
<path d="M5187.45 -413.299C5081.51 -376.988 4970.06 -351.553 4870.65 -302.19C4670 -202.627 4581.14 -14.2095 4528.42 189.77C4490.1 337.692 4475.87 491.638 4441.57 640.732C4391.53 858.432 4288.27 1050.87 4151.72 1228.07C4091.14 1306.55 4041.77 1396.24 4001.44 1486.94C3956.25 1588.51 3989.56 1673.18 4092.48 1717.86C4165.27 1749.48 4246.77 1771.23 4325.93 1776.59C4644.56 1798.17 4938.43 1707.82 5212.05 1551.69C5365.17 1464.35 5477.97 1332.15 5572.52 1184.73C5714.1 963.685 5830.91 732.263 5891.49 473.901C5968.47 146.263 5839.78 -162.299 5596.62 -319.592C5477.13 -396.9 5339.9 -426.686 5195.98 -413.132" stroke="white" stroke-linecap="round" stroke-linejoin="round"/>
<path d="M5195.82 465.2C5018.76 515.4 4962.36 658.637 4929.06 816.767C4918.18 868.808 4905.97 922.354 4935.59 976.068C4969.89 1038.15 5012.57 1054.38 5078.84 1026.1C5230.79 961.51 5273.97 822.791 5312.29 682.566C5345.09 562.253 5320.66 517.91 5204.18 465.2" stroke="white" stroke-linecap="round" stroke-linejoin="round"/>
<path d="M5271.12 -45.166C5195.82 -22.9107 5119.17 -4.00207 5045.37 22.4366C4837.18 97.2344 4740.79 265.906 4685.73 465.367C4611.76 732.765 4545.49 1002.34 4465.83 1267.9C4419.98 1420.5 4510.68 1503.84 4651.93 1508.69C4954.16 1519.06 5208.7 1404.78 5385.76 1158.13C5523.15 966.697 5640.3 760.208 5689.33 523.934C5707.74 434.745 5719.62 347.899 5691.17 255.699C5639.79 90.0391 5532.02 -2.32875 5363.17 -28.4327C5335.05 -32.7834 5307.44 -39.4767 5279.49 -44.9987" stroke="white" stroke-linecap="round" stroke-linejoin="round"/>
<path d="M5187.45 -212.499C5026.63 -172.34 4871.66 -120.299 4760.87 13.5675C4644.23 154.462 4593.02 323.468 4560.39 498.833C4511.36 761.881 4433.71 1013.55 4293.3 1244.13C4260.5 1298.02 4239.08 1359.59 4217.66 1419.33C4191.72 1491.95 4224.35 1561.9 4291.96 1603.57C4388.35 1662.97 4495.46 1674.01 4601.56 1659.96C4815.43 1631.68 5019.6 1574.95 5205.69 1454.81C5379.74 1342.36 5489.01 1179.38 5587.25 1008.2C5685.99 836.009 5775.02 656.796 5806.31 457C5854.17 151.115 5747.4 -109.59 5404.5 -201.79C5338.73 -219.527 5265.6 -209.487 5195.82 -212.332" stroke="white" stroke-linecap="round" stroke-linejoin="round"/>
<path d="M5254.38 155.634C5204.18 169.522 5152.64 179.73 5103.94 198.136C4914.66 269.588 4833 433.072 4780.11 608.27C4733.26 763.22 4701.29 924.195 4679.37 1084.67C4655.61 1258.86 4784.47 1355.41 4936.59 1319.77C5134.4 1273.42 5268.94 1153.44 5372.53 984.602C5464.07 835.508 5522.98 674.868 5562.81 506.699C5593.6 376.848 5491.52 210.519 5362.83 172.869C5330.53 163.331 5296.05 161.156 5262.58 155.634" stroke="white" stroke-linecap="round" stroke-linejoin="round"/>
</g>
</svg>
