<svg class="wave" width="1367" height="399" viewBox="0 0 1367 399" fill="none" xmlns="http://www.w3.org/2000/svg">
<g opacity="0.5">
<path d="M646.147 305.019C551.394 284.977 471.826 286.102 363.54 296.926C243.637 308.898 6.14078e-05 376.186 6.14078e-05 376.186C40.1672 364.716 103.448 334.113 202.393 305.019C127.663 294.052 85.4599 270.897 66.3704 218.863C53.8675 184.788 60.574 146.643 78.7774 119.321C85.9629 108.545 96.9807 100.236 110.25 95.3754C113.915 68.0774 126.609 54.3087 139.519 44.2754C160.285 28.1122 182.992 31.273 200.74 36.1818C202.129 36.565 203.47 37.0918 204.812 37.6665C226.56 25.7415 244.979 24.3766 258.895 32.0632C273.889 40.3484 276.859 51.8423 278.895 63.6714C280.547 73.3454 274.655 84.8393 263.709 91.3046C254.104 96.9797 242.081 94.7288 237.53 88.8382C236.739 87.8325 236.284 86.5873 236.093 85.2703C234.871 83.211 234.153 80.7925 234.153 78.2303C234.153 70.5917 240.332 64.4137 247.973 64.4137C254.967 64.4137 260.715 69.6099 261.649 76.3386C266.727 69.6578 267.949 56.7032 246.105 51.7944C246.105 51.7944 234.033 51.7704 223.949 56.8469C226.728 62.3544 228.62 68.6042 229.266 75.3329C230.895 92.4061 219.901 107.612 208.716 110.102C197.53 112.592 183.303 96.0937 193.794 84.2407C202.249 74.6864 208.955 79.26 208.955 79.26C212.596 68.4605 188.093 36.4931 159.758 73.0102C159.758 73.0102 155.687 81.1517 153.172 91.8554C155.088 92.1667 157.004 92.5258 158.944 92.9808C188.74 99.7574 206.297 125.978 204.261 146.284C202.225 166.59 167.591 182.825 154.202 157.969C145.938 142.644 158.082 129.282 158.082 129.282C141.818 117.094 70.2505 140.154 119.639 204.687C174.177 275.925 274.032 247.238 613.357 172.073C787.439 133.521 961.616 176.623 1066.05 213.451C1243.79 239.696 1367 316.824 1367 316.824C1367 316.824 1259.86 279.302 1155.6 249.777C1155.19 249.657 1154.79 249.561 1154.38 249.441C1160.46 252.339 1163.7 254.015 1163.7 254.015C1157.42 251.644 1149.64 248.867 1140.56 245.778C937.88 195.133 707.775 269.987 631.249 273.866C625.046 274.177 619.058 274.417 613.285 274.584C732.493 302.098 833.857 350.564 833.857 350.564C833.857 350.564 740.924 325.062 646.147 305.019ZM906.982 205.98C938.407 204.16 968.945 204.424 998.406 206.267C930.048 191.134 853.618 180.071 789.954 184.884C656.231 194.989 656.806 205.405 536.783 239.432C518.796 244.533 501.454 249.633 484.64 254.638C489.67 255.572 494.58 256.41 499.419 257.128C512.927 257.99 526.508 259.355 540.089 261.151C651.92 266.084 721.116 216.756 906.982 205.98Z" fill="#005CAC"/>
<path d="M746.218 373.432C746.218 373.432 673.261 346.373 568.543 343.38C472.88 340.65 438.605 339.094 336.523 349.534C223.494 361.1 79.2564 398.048 79.2564 398.048C139.375 380.472 207.734 332.461 404.522 318.788C586.891 306.121 746.194 373.456 746.194 373.456L746.218 373.432Z" fill="#005CAC"/>
<path d="M546.675 158.065C437.336 185.387 319.613 222.574 242.081 229.638C181.938 235.098 147.591 214.936 147.591 214.936C237.793 231.339 245.985 223.125 382.654 183.471C444.641 165.488 501.359 136.203 604.064 122.53C792.66 97.4108 967.604 165.728 967.604 165.728C967.604 165.728 850.073 143.865 757.14 138.406C727.008 136.634 619.489 139.842 546.675 158.041V158.065Z" fill="#005CAC"/>
<path d="M401.791 127.486C391.228 127.486 382.654 118.914 382.654 108.354C382.654 97.7938 391.228 89.2213 401.791 89.2213C412.354 89.2213 420.929 97.7938 420.929 108.354C420.929 118.914 412.354 127.486 401.791 127.486Z" fill="#005CAC"/>
<path d="M349.864 36.3494C339.828 36.3494 331.684 28.2079 331.684 18.1747C331.684 8.14151 339.828 0 349.864 0C359.899 0 368.043 8.14151 368.043 18.1747C368.043 28.2079 359.899 36.3494 349.864 36.3494Z" fill="#005CAC"/>
<path d="M317.074 103.062C309.433 103.062 303.254 96.884 303.254 89.2453C303.254 81.6067 309.433 75.4287 317.074 75.4287C324.714 75.4287 330.894 81.6067 330.894 89.2453C330.894 96.884 324.714 103.062 317.074 103.062Z" fill="#005CAC"/>
</g>
</svg>
